<?xml version="1.0" encoding="UTF-8" standalone="no"?>
<svg
   height="13"
   viewBox="0 -960 880 520"
   width="22"
   fill="#5f6368"
   version="1.1"
   id="svg1"
   sodipodi:docname="set_meal_24dp_5F6368_FILL0_wght400_GRAD0_opsz24.svg"
   inkscape:version="1.4 (86a8ad7, 2024-10-11)"
   xmlns:inkscape="http://www.inkscape.org/namespaces/inkscape"
   xmlns:sodipodi="http://sodipodi.sourceforge.net/DTD/sodipodi-0.dtd"
   xmlns="http://www.w3.org/2000/svg"
   xmlns:svg="http://www.w3.org/2000/svg">
  <defs
     id="defs1" />
  <sodipodi:namedview
     id="namedview1"
     pagecolor="#ffffff"
     bordercolor="#000000"
     borderopacity="0.25"
     inkscape:showpageshadow="2"
     inkscape:pageopacity="0.0"
     inkscape:pagecheckerboard="0"
     inkscape:deskcolor="#d1d1d1"
     inkscape:zoom="35.060711"
     inkscape:cx="11.109301"
     inkscape:cy="7.8720594"
     inkscape:window-width="2560"
     inkscape:window-height="1494"
     inkscape:window-x="-11"
     inkscape:window-y="1951"
     inkscape:window-maximized="1"
     inkscape:current-layer="svg1" />
  <path
     d="m 80,-440 c -22,0 -40.833333,-7.83333 -56.5,-23.5 C 7.833333,-479.16667 0,-498 0,-520 v -360 c 0,-22 7.833333,-40.83333 23.5,-56.5 C 39.166667,-952.16667 58,-960 80,-960 h 720 c 22,0 40.83333,7.83333 56.5,23.5 15.66667,15.66667 23.5,34.5 23.5,56.5 v 360 c 0,22 -7.83333,40.83333 -23.5,56.5 -15.66667,15.66667 -34.5,23.5 -56.5,23.5 z m 0,-440 v 360 h 720 v -360 z m 290,300 c 49.33333,0 96.83333,-8.66667 142.5,-26 45.66667,-17.33333 85.5,-44 119.5,-80 4,28 18.66667,49.33333 44,64 25.33333,14.66667 53.33333,22 84,22 v -200 c -30.66667,0 -58.66667,7.5 -84,22.5 -25.33333,15 -40,36.83333 -44,65.5 -35.33333,-34.66667 -75.5,-61.33333 -120.5,-80 -45,-18.66667 -92.16667,-28 -141.5,-28 -52.66667,0 -103.33333,9.16667 -152,27.5 -48.66667,18.33333 -88,49.16667 -118,92.5 30,43.33333 69.33333,74.16667 118,92.5 48.66667,18.33333 99.33333,27.5 152,27.5 z M 80,-880 v 360 z"
     id="path1"
     sodipodi:nodetypes="ssssssssssssscccccsscsccscssscssccc" />
</svg>
