<?xml version="1.0" encoding="UTF-8" standalone="no"?>
<svg
   height="19"
   viewBox="0 -960 560 760"
   width="14"
   fill="#5f6368"
   version="1.1"
   id="svg1"
   sodipodi:docname="Krok.svg"
   inkscape:version="1.4 (86a8ad7, 2024-10-11)"
   xmlns:inkscape="http://www.inkscape.org/namespaces/inkscape"
   xmlns:sodipodi="http://sodipodi.sourceforge.net/DTD/sodipodi-0.dtd"
   xmlns="http://www.w3.org/2000/svg"
   xmlns:svg="http://www.w3.org/2000/svg">
  <defs
     id="defs1" />
  <sodipodi:namedview
     id="namedview1"
     pagecolor="#ffffff"
     bordercolor="#000000"
     borderopacity="0.25"
     inkscape:showpageshadow="2"
     inkscape:pageopacity="0.0"
     inkscape:pagecheckerboard="0"
     inkscape:deskcolor="#d1d1d1"
     inkscape:zoom="49.583333"
     inkscape:cx="7.0084034"
     inkscape:cy="10.003361"
     inkscape:window-width="2560"
     inkscape:window-height="1494"
     inkscape:window-x="-11"
     inkscape:window-y="1951"
     inkscape:window-maximized="1"
     inkscape:current-layer="svg1" />
  <path
     d="M 240,-200 Q 140,-200 70,-270 0,-340 0,-440 v -240 l 200,200 -56,57 -64,-64 v 47 q 0,66 47,113 47,47 113,47 66,0 113,-47 47,-47 47,-113 v -127 q -36,-14 -58,-44.5 -22,-30.5 -22,-68.5 0,-38 22,-68.5 22,-30.5 58,-44.5 v -167 h 80 v 167 q 36,14 58,44.5 22,30.5 22,68.5 0,38 -22,69 -22,31 -58,44 v 127 q 0,100 -70,170 -70,70 -170,70 z m 200,-440 q 17,0 28.5,-11.5 Q 480,-663 480,-680 480,-697 468.5,-708.5 457,-720 440,-720 q -17,0 -28.5,11.5 -11.5,11.5 -11.5,28.5 0,17 11.5,28.5 11.5,11.5 28.5,11.5 z m 0,-40 z"
     id="path1" />
</svg>
